<svg width="45" height="45" viewBox="0 0 45 45" fill="none" xmlns="http://www.w3.org/2000/svg">
<path d="M34.8412 30.9111C35.0826 30.6914 45 22.79 45 22.79L43.3101 22.1309C42.3444 21.7002 42.5955 21.1201 42.8273 20.6016C43.059 19.9336 44.7682 14.6865 44.7682 14.6865C44.7682 14.6865 40.162 15.5654 39.1964 15.7852C38.4721 15.9961 38.2307 15.5654 37.9893 15.126C37.7479 14.6865 36.5408 12.2783 36.5408 12.2783C36.5408 12.2783 31.4614 17.543 31.22 17.7539C30.2543 18.4131 29.279 17.7539 29.5204 16.875C29.5204 15.9961 32.1856 5.48438 32.1856 5.48438C32.1856 5.48438 29.279 7.01367 28.3133 7.45313C27.5891 7.89258 27.0966 7.89258 26.6137 7.01367C26.1212 6.35449 22.4903 0 22.4903 0C22.4903 0 18.8691 6.35449 18.3863 7.01367C17.9034 7.89258 17.4206 7.89258 16.6867 7.45313C15.721 7.01367 12.8144 5.48438 12.8144 5.48438C12.8144 5.48438 15.4796 15.9961 15.4796 16.875C15.721 17.7539 14.7554 18.4131 13.78 17.7539C13.5386 17.5342 8.45923 12.2783 8.45923 12.2783C8.45923 12.2783 7.25215 14.6777 7.01073 15.1172C6.76931 15.5566 6.5279 15.9873 5.80365 15.7764C4.82833 15.5566 0.23176 14.6777 0.23176 14.6777C0.23176 14.6777 1.93133 19.9248 2.17275 20.5928C2.40451 21.1201 2.65558 21.6914 1.68991 22.1221L0 22.79C0 22.79 9.90772 30.6914 10.1588 30.9111C10.6513 31.3506 11.1245 31.5703 10.6513 32.8887C10.1588 34.207 9.67597 35.9736 9.67597 35.9736C9.67597 35.9736 18.8691 34.207 19.8444 33.9873C20.6845 33.9082 21.6116 34.207 21.6116 35.0859C21.6116 35.9648 21.0515 45 21.0515 45H23.9485C23.9485 45 23.3884 35.9736 23.3884 35.0859C23.3884 34.1982 24.3058 33.9082 25.1652 33.9873C26.1309 34.207 35.324 35.9736 35.324 35.9736C35.324 35.9736 34.8412 34.207 34.3584 32.8887C33.8755 31.5703 34.3584 31.3506 34.8412 30.9111Z" fill="#802DD5"/>
</svg>
